<mxfile host="app.diagrams.net" modified="2024-03-04T08:13:46.354Z" agent="Mozilla/5.0 (X11; Linux x86_64) AppleWebKit/537.36 (KHTML, like Gecko) Chrome/121.0.0.0 Safari/537.36" version="24.0.1" etag="vyFH4TdbHDu0vTVubjvC" type="github">
  <diagram name="Page-1" id="y2nuZl1BzRX6Ut87vOl1">
    <mxGraphModel>
      <root>
        <mxCell id="0" />
        <mxCell id="1" parent="0" />
      </root>
    </mxGraphModel>
  </diagram>
</mxfile>
